<svg width="381" height="77" viewBox="0 0 381 77" fill="none" xmlns="http://www.w3.org/2000/svg">
<path d="M103.85 62.61C100.12 62.61 96.8699 61.89 94.1099 60.45C91.3499 59.02 89.1999 57 87.6799 54.42C86.1599 51.84 85.3999 48.82 85.3999 45.36V34.34C85.3999 30.88 86.1599 27.86 87.6799 25.28C89.1999 22.7 91.3399 20.68 94.1099 19.25C96.8799 17.82 100.13 17.09 103.85 17.09C107.57 17.09 110.73 17.81 113.47 19.25C116.21 20.69 118.34 22.7 119.86 25.28C121.38 27.86 122.14 30.89 122.14 34.34V42.24H103.06L96.8299 36.01L112.48 35.86V34.26C112.48 31.23 111.76 28.89 110.32 27.27C108.89 25.65 106.73 24.83 103.85 24.83C100.97 24.83 98.7899 25.66 97.2999 27.31C95.8099 28.96 95.0599 31.31 95.0599 34.34V45.36C95.0599 48.44 95.8099 50.78 97.2999 52.35C98.7899 53.92 101 54.71 103.93 54.71C106.17 54.71 107.98 54.32 109.36 53.55C110.74 52.78 111.62 51.65 111.99 50.16H121.81C121.07 53.94 119.05 56.96 115.78 59.22C112.51 61.48 108.53 62.61 103.84 62.61H103.85ZM129.59 61.81V53.03H141.33V12.31H129.59V3.53002H163.13V12.31H151.39V53.03H163.13V61.81H129.59ZM171.39 61.81V3.52002H191.11C195.05 3.52002 198.47 4.27002 201.37 5.76002C204.27 7.25002 206.52 9.35002 208.12 12.07C209.72 14.78 210.52 18.01 210.52 21.73V43.53C210.52 47.2 209.72 50.41 208.12 53.15C206.52 55.89 204.27 58.02 201.37 59.54C198.47 61.06 195.05 61.82 191.11 61.82H171.39V61.81ZM181.37 52.63H191.11C193.98 52.63 196.27 51.82 197.98 50.2C199.68 48.58 200.53 46.35 200.53 43.53V21.73C200.53 18.96 199.68 16.76 197.98 15.14C196.28 13.52 193.98 12.7 191.11 12.7H181.37V52.62V52.63ZM236.38 62.61C232.92 62.61 229.9 61.91 227.32 60.53C224.74 59.15 222.74 57.19 221.33 54.66C219.92 52.14 219.21 49.19 219.21 45.84V33.86C219.21 30.45 219.92 27.49 221.33 25C222.74 22.5 224.74 20.55 227.32 19.17C229.9 17.79 232.92 17.09 236.38 17.09C239.84 17.09 242.86 17.79 245.44 19.17C248.02 20.55 250.02 22.5 251.43 25C252.84 27.5 253.55 30.46 253.55 33.86V41.6H233.57L228.14 36.17H246.52V33.85C246.52 30.39 245.66 27.73 243.92 25.87C242.19 24.01 239.68 23.08 236.37 23.08C233.06 23.08 230.62 24.01 228.86 25.87C227.11 27.73 226.22 30.4 226.22 33.85V45.83C226.22 49.28 227.1 51.94 228.86 53.77C230.61 55.6 233.12 56.52 236.37 56.52C239.14 56.52 241.38 56.02 243.08 55.04C244.78 54.06 245.82 52.58 246.19 50.61H253.38C252.9 54.28 251.1 57.2 247.99 59.35C244.88 61.51 241 62.58 236.37 62.58L236.38 62.61ZM274.53 62.61C269.9 62.61 266.25 61.42 263.59 59.06C260.93 56.69 259.6 53.48 259.6 49.44C259.6 45.4 260.93 42.12 263.59 39.78C266.25 37.44 269.84 36.27 274.37 36.27H286.3L280.95 41.62H274.52C272.13 41.62 270.23 42.29 268.85 43.62C267.47 44.95 266.77 46.76 266.77 49.05C266.77 51.5 267.61 53.43 269.29 54.84C270.96 56.25 273.3 56.96 276.28 56.96C279.69 56.96 282.48 56.11 284.66 54.41C286.84 52.71 287.93 50.52 287.93 47.86V31.89C287.93 29.18 287.12 27.09 285.5 25.62C283.88 24.16 281.57 23.42 278.59 23.42C275.98 23.42 273.8 23.97 272.04 25.06C270.29 26.15 269.27 27.63 269.01 29.49H261.82C262.3 25.71 264.08 22.7 267.17 20.47C270.26 18.24 274.12 17.12 278.75 17.12C283.81 17.12 287.8 18.43 290.73 21.03C293.66 23.64 295.12 27.18 295.12 31.65V61.83H288.09V53.45H288.03C287.75 56.08 286.54 58.21 284.38 59.84C281.91 61.7 278.62 62.64 274.52 62.64L274.53 62.61ZM317.56 62.45C314.6 62.45 311.97 61.98 309.78 61.05C307.58 60.13 305.81 58.79 304.51 57.1C303.21 55.4 302.42 53.37 302.15 51.03H309.34C309.66 52.57 310.53 53.81 311.94 54.7C313.34 55.6 315.23 56.06 317.57 56.06H320.92C323.74 56.06 325.85 55.48 327.23 54.34C328.61 53.2 329.31 51.66 329.31 49.75C329.31 47.84 328.68 46.4 327.43 45.32C326.19 44.24 324.33 43.5 321.88 43.12L315.97 42.16C311.66 41.42 308.45 40.07 306.35 38.13C304.25 36.19 303.2 33.35 303.2 29.63C303.2 25.69 304.45 22.64 306.95 20.49C309.45 18.33 313.2 17.26 318.21 17.26H321.24C325.45 17.26 328.83 18.25 331.38 20.21C333.93 22.17 335.48 24.84 336.01 28.2H328.82C328.5 26.82 327.69 25.7 326.42 24.89C325.15 24.07 323.4 23.65 321.23 23.65H318.2C315.5 23.65 313.5 24.16 312.25 25.17C311.01 26.17 310.37 27.7 310.37 29.72C310.37 31.53 310.9 32.86 311.97 33.71C313.03 34.56 314.71 35.17 317 35.55L322.91 36.51C327.65 37.25 331.09 38.64 333.25 40.66C335.41 42.68 336.48 45.61 336.48 49.44C336.48 53.48 335.19 56.67 332.61 58.98C330.03 61.3 326.11 62.45 320.91 62.45H317.56ZM351.15 76.18L357.62 59.09L341.33 17.89H349.31L359.53 45.04C359.9 45.94 360.25 47.02 360.57 48.27C360.89 49.52 361.16 50.57 361.37 51.42C361.58 50.57 361.85 49.52 362.17 48.27C362.49 47.02 362.81 45.94 363.13 45.04L372.71 17.89H380.46L358.82 76.18H351.15Z" fill="white"/>
<path fill-rule="evenodd" clip-rule="evenodd" d="M19.15 0H32.67H46.2L55.76 9.56L65.32 19.12V29.74H51.33C49.93 20.69 42.11 13.76 32.66 13.76C23.21 13.76 15.39 20.69 13.99 29.74H0V19.12L9.56 9.56L19.12 0H19.15ZM32.68 19.57C25.46 19.57 19.6 25.43 19.6 32.65C19.6 39.87 25.46 45.73 32.68 45.73C39.9 45.73 45.76 39.87 45.76 32.65C45.76 25.43 39.9 19.57 32.68 19.57ZM65.33 35.55V46.17L55.77 55.73L46.21 65.29H32.68H19.16L9.6 55.73L0.039999 46.17V35.55H14.03C15.43 44.6 23.25 51.53 32.7 51.53C42.15 51.53 49.97 44.6 51.37 35.55H65.36H65.33Z" fill="white"/>
</svg>
