<?xml version="1.0" encoding="UTF-8"?>
<svg id="Layer_1" data-name="Layer 1" xmlns="http://www.w3.org/2000/svg" viewBox="0 0 349.95 128.41">
  <defs>
    <style>
      .cls-1 {
        fill: #fff;
      }
    </style>
  </defs>
  <path class="cls-1" d="M45.89,94.15c-3.73,0-6.98-.72-9.74-2.16-2.76-1.43-4.91-3.45-6.43-6.03-1.52-2.58-2.28-5.6-2.28-9.06v-11.02c0-3.46.76-6.48,2.28-9.06,1.52-2.58,3.66-4.6,6.43-6.03,2.77-1.43,6.02-2.16,9.74-2.16s6.88.72,9.62,2.16c2.74,1.44,4.87,3.45,6.39,6.03,1.52,2.58,2.28,5.61,2.28,9.06v7.9h-19.08l-6.23-6.23,15.65-.15v-1.6c0-3.03-.72-5.37-2.16-6.99-1.43-1.62-3.59-2.44-6.47-2.44s-5.06.83-6.55,2.48c-1.49,1.65-2.24,4-2.24,7.03v11.02c0,3.08.75,5.42,2.24,6.99,1.49,1.57,3.7,2.36,6.63,2.36,2.24,0,4.05-.39,5.43-1.16,1.38-.77,2.26-1.9,2.63-3.39h9.82c-.74,3.78-2.76,6.8-6.03,9.06-3.27,2.26-7.25,3.39-11.94,3.39h0ZM71.64,93.35v-8.78h11.74v-40.72h-11.74v-8.78h33.54v8.78h-11.74v40.72h11.74v8.78h-33.54ZM113.44,93.35v-58.29h19.72c3.94,0,7.36.75,10.26,2.24,2.9,1.49,5.15,3.59,6.75,6.31,1.6,2.71,2.4,5.94,2.4,9.66v21.8c0,3.67-.8,6.88-2.4,9.62-1.6,2.74-3.85,4.87-6.75,6.39-2.9,1.52-6.32,2.28-10.26,2.28h-19.72ZM123.42,84.17h9.74c2.87,0,5.16-.81,6.87-2.43,1.7-1.62,2.55-3.85,2.55-6.67v-21.8c0-2.77-.85-4.97-2.55-6.59-1.7-1.62-4-2.44-6.87-2.44h-9.74v39.92h0ZM178.42,94.15c-3.46,0-6.48-.7-9.06-2.08-2.58-1.38-4.58-3.34-5.99-5.87-1.41-2.52-2.12-5.47-2.12-8.82v-11.98c0-3.41.71-6.37,2.12-8.86,1.41-2.5,3.41-4.45,5.99-5.83,2.58-1.38,5.6-2.08,9.06-2.08s6.48.7,9.06,2.08c2.58,1.38,4.58,3.33,5.99,5.83,1.41,2.5,2.12,5.46,2.12,8.86v7.74h-19.98l-5.43-5.43h18.38v-2.32c0-3.46-.86-6.12-2.6-7.98-1.73-1.86-4.24-2.79-7.55-2.79s-5.75.93-7.51,2.79c-1.75,1.86-2.64,4.53-2.64,7.98v11.98c0,3.45.88,6.11,2.64,7.94,1.75,1.83,4.26,2.75,7.51,2.75,2.77,0,5.01-.5,6.71-1.48,1.7-.98,2.74-2.46,3.11-4.43h7.19c-.48,3.67-2.28,6.59-5.39,8.74-3.11,2.16-6.99,3.23-11.62,3.23h0ZM216.57,94.15c-4.63,0-8.28-1.19-10.94-3.55-2.66-2.37-3.99-5.58-3.99-9.62s1.33-7.32,3.99-9.66c2.66-2.34,6.25-3.51,10.78-3.51h11.93l-5.35,5.35h-6.43c-2.39,0-4.29.67-5.67,2-1.38,1.33-2.08,3.14-2.08,5.43,0,2.45.84,4.38,2.52,5.79,1.67,1.41,4.01,2.12,6.99,2.12,3.41,0,6.2-.85,8.38-2.55,2.18-1.7,3.27-3.89,3.27-6.55v-15.97c0-2.71-.81-4.8-2.43-6.27-1.62-1.46-3.93-2.2-6.91-2.2-2.61,0-4.79.55-6.55,1.64-1.75,1.09-2.77,2.57-3.03,4.43h-7.19c.48-3.78,2.26-6.79,5.35-9.02,3.09-2.23,6.95-3.35,11.58-3.35,5.06,0,9.05,1.31,11.98,3.91,2.93,2.61,4.39,6.15,4.39,10.62v30.18h-7.03v-8.38h-.06c-.28,2.63-1.49,4.76-3.65,6.39-2.47,1.86-5.76,2.8-9.86,2.8h0ZM259.6,93.99c-2.96,0-5.59-.47-7.78-1.4-2.2-.92-3.97-2.26-5.27-3.95-1.3-1.7-2.09-3.73-2.36-6.07h7.19c.32,1.54,1.19,2.78,2.6,3.67,1.4.9,3.29,1.36,5.63,1.36h3.35c2.82,0,4.93-.58,6.31-1.72,1.38-1.14,2.08-2.68,2.08-4.59s-.63-3.35-1.88-4.43c-1.24-1.08-3.1-1.82-5.55-2.2l-5.91-.96c-4.31-.74-7.52-2.09-9.62-4.03-2.1-1.94-3.15-4.78-3.15-8.5,0-3.94,1.25-6.99,3.75-9.14,2.5-2.16,6.25-3.23,11.26-3.23h3.03c4.21,0,7.59.99,10.14,2.95,2.55,1.96,4.1,4.63,4.63,7.99h-7.19c-.32-1.38-1.13-2.5-2.4-3.31-1.27-.82-3.02-1.24-5.19-1.24h-3.03c-2.7,0-4.7.51-5.95,1.52-1.24,1-1.88,2.53-1.88,4.55,0,1.81.53,3.14,1.6,3.99,1.06.85,2.74,1.46,5.03,1.84l5.91.96c4.74.74,8.18,2.13,10.34,4.15,2.16,2.02,3.23,4.95,3.23,8.78,0,4.04-1.29,7.23-3.87,9.54-2.58,2.32-6.5,3.47-11.7,3.47h-3.35ZM293.2,107.72l6.47-17.09-16.29-41.2h7.98l10.22,27.15c.37.9.72,1.98,1.04,3.23.32,1.25.59,2.3.8,3.15.21-.85.48-1.9.8-3.15.32-1.25.64-2.33.96-3.23l9.58-27.15h7.75l-21.64,58.29h-7.67Z"/>
</svg>