<svg width="296" height="73" viewBox="0 0 296 73" fill="none" xmlns="http://www.w3.org/2000/svg">
<path d="M18.45 59.09C14.72 59.09 11.47 58.37 8.71 56.93C5.95 55.5 3.8 53.48 2.28 50.9C0.759999 48.32 0 45.3 0 41.84V30.82C0 27.36 0.759999 24.34 2.28 21.76C3.8 19.18 5.94 17.16 8.71 15.73C11.48 14.3 14.73 13.57 18.45 13.57C22.17 13.57 25.33 14.29 28.07 15.73C30.81 17.17 32.94 19.18 34.46 21.76C35.98 24.34 36.74 27.37 36.74 30.82V38.72H17.66L11.43 32.49L27.08 32.34V30.74C27.08 27.71 26.36 25.37 24.92 23.75C23.49 22.13 21.33 21.31 18.45 21.31C15.57 21.31 13.39 22.14 11.9 23.79C10.41 25.44 9.66 27.79 9.66 30.82V41.84C9.66 44.92 10.41 47.26 11.9 48.83C13.39 50.4 15.6 51.19 18.53 51.19C20.77 51.19 22.58 50.8 23.96 50.03C25.34 49.26 26.22 48.13 26.59 46.64H36.41C35.67 50.42 33.65 53.44 30.38 55.7C27.11 57.96 23.13 59.09 18.44 59.09H18.45ZM44.2 58.29V49.51H55.94V8.79H44.2V0.00999832H77.74V8.79H66V49.51H77.74V58.29H44.2ZM86 58.29V0H105.72C109.66 0 113.08 0.749998 115.98 2.24C118.88 3.73 121.13 5.83 122.73 8.55C124.33 11.26 125.13 14.49 125.13 18.21V40.01C125.13 43.68 124.33 46.89 122.73 49.63C121.13 52.37 118.88 54.5 115.98 56.02C113.08 57.54 109.66 58.3 105.72 58.3H86V58.29ZM95.98 49.11H105.72C108.59 49.11 110.88 48.3 112.59 46.68C114.29 45.06 115.14 42.83 115.14 40.01V18.21C115.14 15.44 114.29 13.24 112.59 11.62C110.89 10 108.59 9.18 105.72 9.18H95.98V49.1V49.11ZM150.98 59.09C147.52 59.09 144.5 58.39 141.92 57.01C139.34 55.63 137.34 53.67 135.93 51.14C134.52 48.62 133.81 45.67 133.81 42.32V30.34C133.81 26.93 134.52 23.97 135.93 21.48C137.34 18.98 139.34 17.03 141.92 15.65C144.5 14.27 147.52 13.57 150.98 13.57C154.44 13.57 157.46 14.27 160.04 15.65C162.62 17.03 164.62 18.98 166.03 21.48C167.44 23.98 168.15 26.94 168.15 30.34V38.08H148.17L142.74 32.65H161.12V30.33C161.12 26.87 160.26 24.21 158.52 22.35C156.79 20.49 154.28 19.56 150.97 19.56C147.66 19.56 145.22 20.49 143.46 22.35C141.71 24.21 140.82 26.88 140.82 30.33V42.31C140.82 45.76 141.7 48.42 143.46 50.25C145.21 52.08 147.72 53 150.97 53C153.74 53 155.98 52.5 157.68 51.52C159.38 50.54 160.42 49.06 160.79 47.09H167.98C167.5 50.76 165.7 53.68 162.59 55.83C159.48 57.99 155.6 59.06 150.97 59.06L150.98 59.09ZM189.13 59.09C184.5 59.09 180.85 57.9 178.19 55.54C175.53 53.17 174.2 49.96 174.2 45.92C174.2 41.88 175.53 38.6 178.19 36.26C180.85 33.92 184.44 32.75 188.97 32.75H200.9L195.55 38.1H189.12C186.73 38.1 184.83 38.77 183.45 40.1C182.07 41.43 181.37 43.24 181.37 45.53C181.37 47.98 182.21 49.91 183.89 51.32C185.56 52.73 187.9 53.44 190.88 53.44C194.29 53.44 197.08 52.59 199.26 50.89C201.44 49.19 202.53 47 202.53 44.34V28.37C202.53 25.66 201.72 23.57 200.1 22.1C198.48 20.64 196.17 19.9 193.19 19.9C190.58 19.9 188.4 20.45 186.64 21.54C184.89 22.63 183.87 24.11 183.61 25.97H176.42C176.9 22.19 178.68 19.18 181.77 16.95C184.86 14.72 188.72 13.6 193.35 13.6C198.41 13.6 202.4 14.91 205.33 17.51C208.26 20.12 209.72 23.66 209.72 28.13V58.31H202.69V49.93H202.63C202.35 52.56 201.14 54.69 198.98 56.32C196.51 58.18 193.22 59.12 189.12 59.12L189.13 59.09ZM232.16 58.93C229.2 58.93 226.57 58.46 224.38 57.53C222.18 56.61 220.41 55.27 219.11 53.58C217.81 51.88 217.02 49.85 216.75 47.51H223.94C224.26 49.05 225.13 50.29 226.54 51.18C227.94 52.08 229.83 52.54 232.17 52.54H235.52C238.34 52.54 240.45 51.96 241.83 50.82C243.21 49.68 243.91 48.14 243.91 46.23C243.91 44.32 243.28 42.88 242.03 41.8C240.79 40.72 238.93 39.98 236.48 39.6L230.57 38.64C226.26 37.9 223.05 36.55 220.95 34.61C218.85 32.67 217.8 29.83 217.8 26.11C217.8 22.17 219.05 19.12 221.55 16.97C224.05 14.81 227.8 13.74 232.81 13.74H235.84C240.05 13.74 243.43 14.73 245.98 16.69C248.53 18.65 250.08 21.32 250.61 24.68H243.42C243.1 23.3 242.29 22.18 241.02 21.37C239.75 20.55 238 20.13 235.83 20.13H232.8C230.1 20.13 228.1 20.64 226.85 21.65C225.61 22.65 224.97 24.18 224.97 26.2C224.97 28.01 225.5 29.34 226.57 30.19C227.63 31.04 229.31 31.65 231.6 32.03L237.51 32.99C242.25 33.73 245.69 35.12 247.85 37.14C250.01 39.16 251.08 42.09 251.08 45.92C251.08 49.96 249.79 53.15 247.21 55.46C244.63 57.78 240.71 58.93 235.51 58.93H232.16ZM265.76 72.66L272.23 55.57L255.94 14.37H263.92L274.14 41.52C274.51 42.42 274.86 43.5 275.18 44.75C275.5 46 275.77 47.05 275.98 47.9C276.19 47.05 276.46 46 276.78 44.75C277.1 43.5 277.42 42.42 277.74 41.52L287.32 14.37H295.07L273.43 72.66H265.76Z" fill="#E4F222"/>
</svg>
