<svg width="66" height="66" viewBox="0 0 66 66" fill="none" xmlns="http://www.w3.org/2000/svg">
<path fill-rule="evenodd" clip-rule="evenodd" d="M19.15 0H32.67H46.2L55.76 9.56L65.32 19.12V29.74H51.33C49.93 20.69 42.11 13.76 32.66 13.76C23.21 13.76 15.39 20.69 13.99 29.74H0V19.12L9.56 9.56L19.12 0H19.15ZM32.67 19.57C25.45 19.57 19.59 25.43 19.59 32.65C19.59 39.87 25.45 45.73 32.67 45.73C39.89 45.73 45.75 39.87 45.75 32.65C45.75 25.43 39.89 19.57 32.67 19.57ZM65.32 35.56V46.18L55.76 55.74L46.2 65.3H32.67H19.15L9.59 55.74L0.0300007 46.18V35.56H14.02C15.42 44.61 23.24 51.54 32.69 51.54C42.14 51.54 49.96 44.61 51.36 35.56H65.35H65.32Z" fill="#E4F222"/>
</svg>
