<?xml version="1.0" encoding="UTF-8"?>
<svg id="Layer_1" data-name="Layer 1" xmlns="http://www.w3.org/2000/svg" viewBox="0 0 97.3 97.3">
  <defs>
    <style>
      .cls-1 {
        fill: #171d1f;
        fill-rule: evenodd;
      }
    </style>
  </defs>
  <path class="cls-1" d="M35.13,16h13.52s13.53,0,13.53,0l9.56,9.56,9.56,9.56v10.62h-13.99c-1.4-9.05-9.22-15.98-18.67-15.98s-17.27,6.93-18.67,15.98h-13.99v-10.62s9.56-9.56,9.56-9.56l9.56-9.56h0ZM48.65,35.57c-7.22,0-13.08,5.86-13.08,13.08s5.86,13.08,13.08,13.08,13.08-5.86,13.08-13.08-5.86-13.08-13.08-13.08h0ZM81.3,51.56v10.62l-9.56,9.56-9.56,9.56h-13.53s-13.52,0-13.52,0l-9.56-9.56-9.56-9.56v-10.62s13.99,0,13.99,0c1.4,9.05,9.22,15.98,18.67,15.98s17.27-6.93,18.67-15.98h13.99Z"/>
</svg>